<svg xmlns="http://www.w3.org/2000/svg" viewBox="0 0 612.001 612.001" width="512" height="512"><g fill="#FFF"><path d="M567.734 57.47c-28.593-28.593-66.607-44.338-107.044-44.338-40.435 0-78.451 15.745-107.041 44.338-28.593 28.593-44.34 66.606-44.34 107.044 0 40.435 15.747 78.449 44.34 107.041 28.592 28.593 66.606 44.341 107.041 44.341 40.436 0 78.452-15.748 107.044-44.341 59.023-59.023 59.023-155.061 0-214.085zm-24.037 190.049c-22.171 22.174-51.652 34.384-83.007 34.384-31.356 0-60.833-12.21-83.004-34.384-22.173-22.171-34.383-51.649-34.383-83.004s12.21-60.836 34.383-83.007c22.171-22.171 51.65-34.382 83.004-34.382 31.356 0 60.836 12.21 83.007 34.382 45.769 45.767 45.769 120.242 0 166.011z"/><path d="M508.379 146.853h-32.682v-32.681c0-9.387-7.61-16.996-16.996-16.996s-16.996 7.609-16.996 16.996v32.681h-32.682c-9.386 0-16.996 7.61-16.996 16.996 0 9.389 7.61 16.996 16.996 16.996h32.682v32.683c0 9.389 7.61 16.996 16.996 16.996s16.996-7.607 16.996-16.996v-32.683h32.682c9.386 0 16.996-7.607 16.996-16.996 0-9.386-7.609-16.996-16.996-16.996zM361.408 470.254c-23.202-16.36-50.76-28.432-80.75-35.675 27.815-24.092 45.865-62.632 45.865-105.984 0-72.819-50.922-132.062-113.514-132.062-62.589 0-113.512 59.242-113.512 132.062 0 43.353 18.05 81.893 45.865 105.987-29.988 7.239-57.546 19.312-80.748 35.672C22.947 499.633 0 539.273 0 581.874c0 9.386 7.61 16.996 16.996 16.996h392.027c9.387 0 16.996-7.61 16.996-16.996.001-42.601-22.946-82.241-64.611-111.62zm-34.885 94.624v-30.355c0-9.386-7.61-16.996-16.996-16.996s-16.996 7.61-16.996 16.996v30.355H133.49v-30.355c0-9.386-7.61-16.996-16.996-16.996s-16.996 7.61-16.996 16.996v30.355H35.77c5.249-24.922 21.989-48.196 48.432-66.841 34.183-24.102 79.929-37.376 128.81-37.376s94.627 13.272 128.807 37.376c26.443 18.645 43.183 41.918 48.43 66.841h-63.726zM133.49 328.596c0-54.076 35.673-98.07 79.52-98.07 43.848 0 79.522 43.996 79.522 98.07 0 54.079-35.673 98.073-79.52 98.073s-79.522-43.996-79.522-98.073z"/></g></svg>