<svg xmlns="http://www.w3.org/2000/svg" width="40" height="40" viewBox="0 0 40 40"><g fill="none" fill-rule="evenodd"><rect width="40" height="40" fill="#D1D1D1" rx="20"/><path fill="#F9F9FB" fill-rule="nonzero" d="M8 33.676a57.402 57.402 0 0 1 6.425-3.657c.465-.223.76-.676.76-1.186v-2.52a.993.993 0 0 0-.143-.511c-.524-.865-.888-1.903-1.074-3.08a1.01 1.01 0 0 0-.744-.816c-.101-.124-.388-.552-.752-1.796-.287-.988-.287-1.474-.262-1.672.313 0 .617-.14.811-.387a.98.98 0 0 0 .161-.955 5.606 5.606 0 0 1-.144-3.435c.27-1.12.888-2.174 1.843-3.13a8.81 8.81 0 0 1 1.742-1.4 6.602 6.602 0 0 1 1.665-.84 5.452 5.452 0 0 1 1.471-.264c1.386-.115 2.63.132 3.72.766 1.2.643 1.682 1.483 1.682 1.483.169.313.49.519.845.544.009 0 .465.082.88.61.49.633 1.183 2.28.338 6.259a.999.999 0 0 0 .55 1.104c.033.156.075.634-.246 1.746-.287.988-.524 1.458-.668 1.672-.177-.025-.372 0-.54.066a1.02 1.02 0 0 0-.618.75c-.17.93-.431 1.762-.786 2.47a1 1 0 0 0-.102.437v2.915c0 .51.288.964.761 1.186.778.371 3.39 1.664 6.425 3.657A18.732 18.732 0 0 1 20.004 38c-4.582-.016-8.766-1.64-12.004-4.324z"/></g></svg>