<svg xmlns="http://www.w3.org/2000/svg" xmlns:xlink="http://www.w3.org/1999/xlink" width="16" height="18" viewBox="0 0 16 18"><defs><path id="a" d="M5.5 8.167H3.833v1.666H5.5V8.167zm3.333 0H7.167v1.666h1.666V8.167zm3.334 0H10.5v1.666h1.667V8.167zm1.666-5.834H13V.667h-1.667v1.666H4.667V.667H3v1.666h-.833A1.66 1.66 0 0 0 .508 4L.5 15.667c0 .916.742 1.666 1.667 1.666h11.666c.917 0 1.667-.75 1.667-1.666V4c0-.917-.75-1.667-1.667-1.667zm0 13.334H2.167V6.5h11.666v9.167z"/></defs><use fill="#FFCD00" fill-rule="evenodd" xlink:href="#a"/></svg>