<svg xmlns="http://www.w3.org/2000/svg" width="220" height="71" viewBox="0 0 220 71"><g fill="none" fill-rule="evenodd"><g stroke-linecap="square"><path stroke="#D1D1D1" stroke-dasharray="2" d="M209 0v70M11 0v70"/><path stroke="#E6E6E6" d="M33 20v50m22-60v60m22-50v50m22-60v60m22-50v50m22-60v60m22-50v50m22-60v60"/></g><path stroke="#FFCD00" stroke-linecap="round" stroke-width="2" d="M1 58l9.85-1 21.978-12 21.978 16.5L76.783 47l21.978 14.5 21.978-6.022L142.717 50l21.977-28.5 21.978 31.75L208.65 37.5l9.85 15.75"/><path stroke="#484747" stroke-linecap="round" stroke-width="2" d="M1 49.678L10.85 60l24.725-8.746L60.3 26.84l16.043 11.516L85.025 60l13.994-4.644 10.731-21.229 24.725-1.093L159.2 12.263l24.725 8.563 24.725-4.19L218.5 6.25"/></g></svg>