<svg xmlns="http://www.w3.org/2000/svg" height="39" width="39" viewBox="0 0 39 39"><path d="M2.5 17A2.503 2.503 0 0 0 0 19.5C0 20.878 1.121 22 2.5 22S5 20.878 5 19.5C5 18.12 3.879 17 2.5 17m0-17A2.503 2.503 0 0 0 0 2.5C0 3.88 1.121 5 2.5 5S5 3.88 5 2.5C5 1.123 3.879 0 2.5 0m0 34A2.503 2.503 0 0 0 0 36.5C0 37.878 1.121 39 2.5 39S5 37.878 5 36.5C5 35.12 3.879 34 2.5 34m17-17a2.503 2.503 0 0 0-2.5 2.5c0 1.378 1.121 2.5 2.5 2.5s2.5-1.122 2.5-2.5c0-1.379-1.121-2.5-2.5-2.5m0-17A2.503 2.503 0 0 0 17 2.5C17 3.88 18.121 5 19.5 5S22 3.88 22 2.5C22 1.123 20.879 0 19.5 0m0 34a2.503 2.503 0 0 0-2.5 2.5c0 1.378 1.121 2.5 2.5 2.5s2.5-1.122 2.5-2.5c0-1.379-1.121-2.5-2.5-2.5m17-17a2.503 2.503 0 0 0-2.5 2.5c0 1.378 1.121 2.5 2.5 2.5s2.5-1.122 2.5-2.5c0-1.379-1.121-2.5-2.5-2.5m0-12C37.879 5 39 3.879 39 2.5S37.879 0 36.5 0A2.503 2.503 0 0 0 34 2.5C34 3.879 35.121 5 36.5 5m0 29a2.503 2.503 0 0 0-2.5 2.5c0 1.378 1.121 2.5 2.5 2.5s2.5-1.122 2.5-2.5c0-1.379-1.121-2.5-2.5-2.5" fill-rule="evenodd" fill="#1a1919"/></svg>