<svg xmlns="http://www.w3.org/2000/svg" xmlns:xlink="http://www.w3.org/1999/xlink" width="20" height="20" viewBox="0 0 20 20"><defs><path id="a" d="M10 6.667a3.332 3.332 0 1 0 0 6.666 3.332 3.332 0 1 0 0-6.666zm7.45 2.5a7.495 7.495 0 0 0-6.617-6.617V.833H9.167V2.55A7.495 7.495 0 0 0 2.55 9.167H.833v1.666H2.55a7.495 7.495 0 0 0 6.617 6.617v1.717h1.666V17.45a7.495 7.495 0 0 0 6.617-6.617h1.717V9.167H17.45zM10 15.833A5.83 5.83 0 0 1 4.167 10 5.83 5.83 0 0 1 10 4.167 5.83 5.83 0 0 1 15.833 10 5.83 5.83 0 0 1 10 15.833z"/></defs><use fill="#FFCD00" fill-rule="evenodd" xlink:href="#a"/></svg>