<svg xmlns="http://www.w3.org/2000/svg" height="10" width="10" viewBox="0 0 10 10"><g stroke-opacity="0"><path fill-opacity="0" d="M24.761-1.677A11.934 9.92 0 0 1 12.75 6.898 11.934 9.92 0 0 1 1.068-1.987a11.934 9.92 0 0 1 9.21-10.706 11.934 9.92 0 0 1 13.89 6.317"/><path fill-opacity="0" d="M27.879-2.789a10.466 10.382 0 0 1-10.534 8.974A10.466 10.382 0 0 1 7.101-3.113a10.466 10.382 0 0 1 8.077-11.204 10.466 10.382 0 0 1 12.181 6.611"/><circle cx="5" cy="5" r="4.824" fill="#fff"/><path fill="#ffcd00" d="M4.969 1.242a3.793 3.793 0 0 1 2.196.688l-2.18 3.105z"/></g></svg>