<svg xmlns="http://www.w3.org/2000/svg" height="28" width="28" xmlns:xlink="http://www.w3.org/1999/xlink" viewBox="0 0 28 28"><defs><clipPath id="b"><use xlink:href="#a" height="100%" width="100%"/></clipPath></defs><g fill-rule="evenodd"><path stroke="#D1D1D1" d="M14 1C6.831 1 1 6.83 1 13.998 1 21.165 6.831 27 14 27s13-5.835 13-13.002C27 6.831 21.169 1 14 1" fill="#FBFBFC"/><path d="M-21.235 19.836c1.754 2.306 4.527 3.66 7.424 3.66 5.12 0 9.244-4.168 9.244-9.287a9.254 9.254 0 0 0-2.66-6.5 9.26 9.26 0 0 0-6.626-2.785v9.286z" fill="#ffcd00"/></g><g clip-path="url(#b)" transform="translate(29.519 .278)" fill="#16aaf5"><path d="M-15.519 4.436a9.338 9.496 0 0 1 9.353 9.46 9.338 9.496 0 0 1-9.281 9.532l-.058-9.496z" id="a"/></g></svg>