<svg xmlns="http://www.w3.org/2000/svg" xmlns:xlink="http://www.w3.org/1999/xlink" height="10" width="10" viewBox="0 0 10 10"><defs><clipPath id="b"><use xlink:href="#a" height="100%" width="100%"/></clipPath></defs><g stroke-opacity="0"><path d="M24.761-1.677A11.934 9.92 0 0 1 12.75 6.898 11.934 9.92 0 0 1 1.068-1.987a11.934 9.92 0 0 1 9.21-10.706 11.934 9.92 0 0 1 13.89 6.317" fill-opacity="0"/><path d="M27.879-2.789a10.466 10.382 0 0 1-10.534 8.974A10.466 10.382 0 0 1 7.101-3.113a10.466 10.382 0 0 1 8.077-11.204 10.466 10.382 0 0 1 12.181 6.611" fill-opacity="0"/><circle cy="5" cx="5" r="4.824" fill="#fff"/><g clip-path="url(#b)"><path fill="#ff39d4" d="M4.969 1.242a3.793 3.793 0 0 1 3.3 1.893 3.793 3.793 0 0 1-.002 3.804 3.793 3.793 0 0 1-3.301 1.89l.02-3.794z" id="a"/></g></g><path d="M4.938 1.248a3.93 3.893-30 0 1 3.719 2.489 3.93 3.893-30 0 1-1.106 4.348 3.93 3.893-30 0 1-4.475.484 3.93 3.893-30 0 1-1.954-4.017l3.87.597z" stroke-opacity="0" fill="#e1251b"/></svg>