<svg xmlns="http://www.w3.org/2000/svg" height="10" width="10" viewBox="0 0 10 10"><path d="M24.761-1.677A11.934 9.92 0 0 1 12.75 6.898 11.934 9.92 0 0 1 1.068-1.987a11.934 9.92 0 0 1 9.21-10.705 11.934 9.92 0 0 1 13.89 6.317" fill="#443948" fill-opacity="0" stroke="#fff" stroke-opacity="0"/><path d="M27.879-2.789a10.466 10.382 0 0 1-10.534 8.974A10.466 10.382 0 0 1 7.101-3.113a10.466 10.382 0 0 1 8.077-11.204 10.466 10.382 0 0 1 12.181 6.611" fill="#443948" fill-opacity="0" stroke="#fff" stroke-opacity="0"/><circle cx="5" cy="5" r="4.824" fill="#fff" stroke="#fff" stroke-width=".352" stroke-opacity="0"/><circle cx="4.986" cy="5.035" r="3.793" fill="#13e219" stroke="#fff" stroke-width="1.413" stroke-opacity="0"/></svg>