<svg xmlns="http://www.w3.org/2000/svg" width="35" height="30" viewBox="0 0 35 30"><path fill="#1A1919" d="M10.095.254a.87.87 0 0 1 .007 1.22l-6.08 6.031a.862.862 0 0 1-1.223 0L.254 4.952a.859.859 0 0 1 0-1.22.863.863 0 0 1 1.223 0l1.93 1.94L8.872.253a.863.863 0 0 1 1.223 0zm-4.92 10.863a3.895 3.895 0 0 1 3.888 3.88 3.89 3.89 0 0 1-3.888 3.88 3.89 3.89 0 0 1-3.888-3.88 3.89 3.89 0 0 1 3.888-3.88zm0 6.03a2.158 2.158 0 0 0 2.156-2.15 2.158 2.158 0 0 0-2.156-2.152 2.158 2.158 0 0 0-2.156 2.151c0 1.186.968 2.152 2.156 2.152zm0 5.094a3.89 3.89 0 0 1 3.888 3.88A3.89 3.89 0 0 1 5.175 30a3.89 3.89 0 0 1-3.888-3.88 3.89 3.89 0 0 1 3.888-3.88zm0 6.024c1.187 0 2.149-.96 2.156-2.152a2.158 2.158 0 0 0-2.156-2.151 2.158 2.158 0 0 0-2.156 2.151c0 1.185.968 2.152 2.156 2.152zm28.234-15.787a.868.868 0 1 1 0 1.735H13.361a.868.868 0 1 1 0-1.735h20.048zm0 3.309a.868.868 0 1 1 0 1.735H13.361a.868.868 0 1 1 0-1.735h20.048zm-20.048 9.536a.868.868 0 1 1 0-1.735h20.048a.868.868 0 1 1 0 1.735H13.361zm20.048 3.316H13.361a.868.868 0 1 1 0-1.736h20.048a.868.868 0 1 1 0 1.736zM12.5 2.222c0-.48.381-.868.862-.868h20.055a.868.868 0 1 1 0 1.736H13.368a.868.868 0 0 1-.87-.868zM33.41 4.67a.868.868 0 1 1 0 1.735H13.361a.868.868 0 1 1 0-1.735h20.048z"/></svg>