<svg id="Layer_1" xmlns="http://www.w3.org/2000/svg" viewBox="0 0 29.1 27.3"><style>.st0{fill:#d1d1d1}</style><path class="st0" d="M28.7 13.3l-3.1-2.2c-.6-.4-1.3 0-1.3.7v1.3h-15c-.5 0-.9.4-.9.9s.4.9.9.9h14.9v1.3c0 .7.8 1.1 1.3.7l3.1-2.2c.6-.4.6-1.1.1-1.4z"/><path class="st0" d="M24.5 19.4c-.4-.2-.9-.1-1.2.3-2 3.5-5.7 5.8-10 5.8-6.4 0-11.6-5.1-11.6-11.5S6.9 2.4 13.3 2.4c4.3 0 8 2.3 10 5.8.2.4.8.5 1.2.3.4-.2.5-.8.3-1.2-2.3-4-6.6-6.6-11.5-6.6C5.9.7 0 6.6 0 14c0 7.3 5.9 13.3 13.3 13.3 4.9 0 9.2-2.7 11.5-6.6.2-.5.1-1-.3-1.3z"/></svg>