<svg xmlns="http://www.w3.org/2000/svg" width="32" height="31" viewBox="0 0 32 31"><path fill="#A3A3A3" d="M16 0a3.896 3.896 0 0 0-3.889 3.895A3.892 3.892 0 0 0 16 7.789a3.892 3.892 0 0 0 3.889-3.894A3.896 3.896 0 0 0 16 0zm0 6.183a2.289 2.289 0 0 1 0-4.577 2.289 2.289 0 0 1 0 4.577zM28.111 0A3.896 3.896 0 0 1 32 3.895a3.892 3.892 0 0 1-3.889 3.894 3.892 3.892 0 0 1-3.888-3.894A3.896 3.896 0 0 1 28.11 0zm0 6.183a2.293 2.293 0 0 0 2.285-2.288 2.293 2.293 0 0 0-2.285-2.289 2.289 2.289 0 0 0 0 4.577zM3.89 0a3.892 3.892 0 0 1 3.888 3.895A3.892 3.892 0 0 1 3.89 7.789 3.892 3.892 0 0 1 0 3.895 3.896 3.896 0 0 1 3.889 0zm0 6.183a2.289 2.289 0 0 0 0-4.577 2.293 2.293 0 0 0-2.285 2.289A2.293 2.293 0 0 0 3.89 6.183zM16 11.605a3.896 3.896 0 0 1 3.889 3.895A3.892 3.892 0 0 1 16 19.395a3.892 3.892 0 0 1-3.889-3.895A3.896 3.896 0 0 1 16 11.605zm0 6.183a2.289 2.289 0 0 0 0-4.577 2.289 2.289 0 0 0 0 4.577zm12.111-6.183A3.896 3.896 0 0 1 32 15.5a3.892 3.892 0 0 1-3.889 3.895 3.892 3.892 0 0 1-3.888-3.895 3.896 3.896 0 0 1 3.888-3.895zm0 6.183a2.293 2.293 0 0 0 2.285-2.288 2.293 2.293 0 0 0-2.285-2.288 2.289 2.289 0 0 0 0 4.576zM3.89 11.605A3.892 3.892 0 0 1 7.777 15.5a3.892 3.892 0 0 1-3.888 3.895A3.892 3.892 0 0 1 0 15.5a3.896 3.896 0 0 1 3.889-3.895zm0 6.183a2.289 2.289 0 0 0 0-4.576 2.289 2.289 0 0 0 0 4.576zM16 23.211a3.9 3.9 0 0 1 3.889 3.894A3.892 3.892 0 0 1 16 31a3.896 3.896 0 0 1-3.889-3.895A3.896 3.896 0 0 1 16 23.211zm0 6.183a2.289 2.289 0 0 0 0-4.577 2.289 2.289 0 0 0 0 4.577zm12.111-6.183A3.9 3.9 0 0 1 32 27.105 3.892 3.892 0 0 1 28.111 31a3.896 3.896 0 0 1-3.888-3.895 3.896 3.896 0 0 1 3.888-3.894zm0 6.183a2.289 2.289 0 0 0 0-4.577 2.289 2.289 0 0 0 0 4.577zM3.89 23.21a3.896 3.896 0 0 1 3.888 3.894A3.892 3.892 0 0 1 3.89 31 3.896 3.896 0 0 1 0 27.105a3.896 3.896 0 0 1 3.889-3.894zm0 6.183a2.289 2.289 0 0 0 0-4.577 2.289 2.289 0 0 0 0 4.577z"/></svg>