<svg xmlns="http://www.w3.org/2000/svg" width="32" height="32" viewBox="0 0 32 32"><path fill="#FFF" d="M18.688 14.112h12.507c.445 0 .805-.36.805-.804C32 5.967 26.034 0 18.695 0a.803.803 0 0 0-.805.798v12.51c0 .451.354.804.798.804zm.805-12.476c5.815.392 10.48 5.057 10.872 10.874H19.493V1.636zM14.548 32C6.528 32 0 25.477 0 17.456 0 9.434 6.522 2.91 14.541 2.91c.445 0 .805.36.805.805V16.65h12.939c.444 0 .804.36.804.805C29.09 25.477 22.567 32 14.548 32zm-.805-27.46C6.98 4.954 1.61 10.594 1.61 17.457c0 7.138 5.802 12.941 12.939 12.941 6.862 0 12.494-5.371 12.912-12.137H14.548a.804.804 0 0 1-.805-.804V4.54z"/></svg>