<svg xmlns="http://www.w3.org/2000/svg" width="26" height="32" viewBox="0 0 26 32"><path fill="#FFF" d="M12.99 6.376c-3.711 0-6.725 3.005-6.725 6.691s3.014 6.697 6.725 6.697c3.712 0 6.726-3.005 6.726-6.69 0-3.686-3.014-6.698-6.726-6.698zm0-6.376C20.156 0 25.987 5.8 26 12.923c0 .825-.079 1.65-.237 2.455a12.65 12.65 0 0 1-.96 2.972c-1.33 3.123-4.258 7.98-10.609 13.224a1.88 1.88 0 0 1-2.382 0c-6.356-5.25-9.285-10.101-10.62-13.25a12.314 12.314 0 0 1-.87-2.54 4.076 4.076 0 0 1-.091-.432 13 13 0 0 1-.172-3.686C.678 5.244 6.041.23 12.53.006 12.682 0 12.84 0 12.99 0zm0 18.16c-2.823 0-5.113-2.284-5.113-5.086 0-2.802 2.297-5.087 5.113-5.087 2.817 0 5.113 2.285 5.113 5.087 0 2.802-2.29 5.086-5.113 5.086zm11.174-3.057c.138-.733.21-1.453.21-2.173 0-6.383-5.33-11.542-11.785-11.32C6.903 1.807 2.21 6.2 1.665 11.823a11.471 11.471 0 0 0 .151 3.254c0 .013.007.026.007.04.007.032.026.137.066.307.178.779.434 1.532.77 2.252 1.276 3.005 4.073 7.62 10.173 12.661a.28.28 0 0 0 .165.06.267.267 0 0 0 .164-.06c6.1-5.034 8.89-9.65 10.16-12.635.343-.746.6-1.5.777-2.272a3.88 3.88 0 0 0 .066-.327z"/></svg>