<svg xmlns="http://www.w3.org/2000/svg" width="32" height="30" viewBox="0 0 32 30"><path fill="#A3A3A3" d="M3.96 29.196a.803.803 0 1 0 1.607 0V9.475c2.248-.386 3.974-2.341 3.974-4.702A4.777 4.777 0 0 0 4.77 0 4.777 4.777 0 0 0 0 4.773a4.776 4.776 0 0 0 3.973 4.702v19.72H3.96zM1.588 4.773a3.178 3.178 0 0 1 3.17-3.171 3.178 3.178 0 0 1 3.168 3.171 3.178 3.178 0 0 1-3.169 3.172 3.173 3.173 0 0 1-3.17-3.172zM20.72 25.227c0 2.628-2.156 4.773-4.783 4.773a4.777 4.777 0 0 1-4.77-4.773c0-2.36 1.725-4.316 3.973-4.702V.805a.803.803 0 1 1 1.607 0v19.72a4.776 4.776 0 0 1 3.973 4.702zm-7.94 0a3.178 3.178 0 0 0 3.17 3.171 3.178 3.178 0 0 0 3.17-3.171 3.178 3.178 0 0 0-3.17-3.172 3.178 3.178 0 0 0-3.17 3.172zM27.224 30a.784.784 0 0 1-.79-.804V9.475a4.776 4.776 0 0 1-3.974-4.702A4.777 4.777 0 0 1 27.23 0 4.777 4.777 0 0 1 32 4.773c0 2.36-1.725 4.316-3.973 4.702v19.72c0 .445-.36.805-.804.805zm-3.17-25.227a3.17 3.17 0 0 0 3.17 3.172 3.178 3.178 0 0 0 3.17-3.172 3.178 3.178 0 0 0-3.17-3.171 3.178 3.178 0 0 0-3.17 3.171z"/></svg>