<svg xmlns="http://www.w3.org/2000/svg" width="23" height="32" viewBox="0 0 23 32"><path fill="#FFCD00" d="M16.324 8.2c2.213 0 4.01-1.838 4.01-4.1 0-2.263-1.797-4.1-4.01-4.1-2.212 0-4.009 1.837-4.009 4.1 0 2.262 1.797 4.1 4.01 4.1zm0-6.598c1.35 0 2.443 1.118 2.443 2.498 0 1.38-1.093 2.497-2.443 2.497-1.349 0-2.442-1.118-2.442-2.497 0-1.38 1.093-2.498 2.442-2.498zM7.078 8.199C4.866 8.2 3.07 6.362 3.07 4.1 3.07 1.838 4.866 0 7.08 0c2.212 0 4.009 1.837 4.009 4.1 0 2.262-1.797 4.1-4.01 4.1zm0-6.597C5.73 1.602 4.636 2.72 4.636 4.1c0 1.38 1.093 2.497 2.442 2.497 1.35 0 2.443-1.118 2.443-2.497 0-1.38-1.093-2.498-2.443-2.498zM20.903 28.75c0 1.785-1.42 3.237-3.159 3.25h-3.62a.795.795 0 0 1-.786-.804c0-.445.352-.805.787-.805h3.619c.882 0 1.599-.732 1.599-1.634v-7.363c0-.333.204-.634.511-.752.946-.353 1.58-1.281 1.58-2.308v-5.211c0-1.36-1.081-2.465-2.411-2.465h-3.421a.795.795 0 0 1-.787-.804c0-.445.352-.805.787-.805h3.42c2.194 0 3.978 1.825 3.978 4.067v5.212a4.09 4.09 0 0 1-2.097 3.576v6.846zm-6.759-15.634v5.212a4.09 4.09 0 0 1-2.097 3.576v6.846c0 1.785-1.42 3.237-3.165 3.237h-3.62c-1.745 0-3.165-1.452-3.165-3.237v-6.846A4.09 4.09 0 0 1 0 18.328v-5.212C0 10.874 1.784 9.05 3.977 9.05h6.19c2.193 0 3.977 1.825 3.977 4.067zm-1.567 5.212h.013v-5.212c0-1.36-1.08-2.465-2.41-2.465H3.99c-1.33 0-2.41 1.105-2.41 2.465v5.218c0 1.027.632 1.955 1.579 2.308a.805.805 0 0 1 .511.752v7.356c0 .903.716 1.635 1.599 1.635h3.619c.882 0 1.599-.732 1.599-1.635v-7.362c0-.334.204-.634.511-.752.946-.353 1.58-1.282 1.58-2.308z"/></svg>