<svg xmlns="http://www.w3.org/2000/svg" viewBox="0 0 512 512"><path d="M475 48.1C451 24.2 419.2 11 385.4 11s-65.6 13.2-89.6 37.1c-23.9 23.9-37.1 55.7-37.1 89.6 0 33.8 13.2 65.6 37.1 89.6 23.9 23.9 55.7 37.1 89.6 37.1 33.8 0 65.6-13.2 89.6-37.1 49.3-49.5 49.3-129.8 0-179.2zm-20.1 159c-18.5 18.6-43.2 28.8-69.4 28.8-26.2 0-50.9-10.2-69.4-28.8-18.5-18.5-28.8-43.2-28.8-69.4s10.2-50.9 28.8-69.4c18.5-18.5 43.2-28.8 69.4-28.8 26.2 0 50.9 10.2 69.4 28.8 38.2 38.2 38.2 100.5 0 138.8z"/><path d="M425.3 122.9H398V95.5c0-7.9-6.4-14.2-14.2-14.2-7.9 0-14.2 6.4-14.2 14.2v27.3h-27.3c-7.9 0-14.2 6.4-14.2 14.2 0 7.9 6.4 14.2 14.2 14.2h27.3v27.3c0 7.9 6.4 14.2 14.2 14.2 7.9 0 14.2-6.4 14.2-14.2v-27.3h27.3c7.9 0 14.2-6.4 14.2-14.2 0-7.8-6.3-14.1-14.2-14.1zM302.4 393.4c-19.4-13.7-42.5-23.8-67.6-29.8 23.3-20.2 38.4-52.4 38.4-88.7 0-60.9-42.6-110.5-95-110.5s-95 49.6-95 110.5c0 36.3 15.1 68.5 38.4 88.7-25.1 6.1-48.1 16.2-67.6 29.8C19.2 418 0 451.2 0 486.8c0 7.9 6.4 14.2 14.2 14.2h328c7.9 0 14.2-6.4 14.2-14.2 0-35.6-19.2-68.8-54-93.4zm-29.2 79.2v-25.4c0-7.9-6.4-14.2-14.2-14.2-7.9 0-14.2 6.4-14.2 14.2v25.4H111.7v-25.4c0-7.9-6.4-14.2-14.2-14.2s-14.2 6.4-14.2 14.2v25.4H29.9c4.4-20.8 18.4-40.3 40.5-55.9 28.6-20.2 66.9-31.3 107.8-31.3s79.2 11.1 107.8 31.3c22.1 15.6 36.1 35.1 40.5 55.9h-53.3zM111.7 274.9c0-45.2 29.8-82 66.5-82s66.5 36.8 66.5 82-29.8 82-66.5 82-66.5-36.8-66.5-82z"/></svg>