<svg xmlns="http://www.w3.org/2000/svg" xmlns:xlink="http://www.w3.org/1999/xlink" width="15" height="17" viewBox="0 0 15 17"><defs><path id="a" d="M10 28.5H8.333v1.667H10V28.5zm3.333 0h-1.666v1.667h1.666V28.5zm3.334 0H15v1.667h1.667V28.5zm1.666-5.833H17.5V21h-1.667v1.667H9.167V21H7.5v1.667h-.833a1.66 1.66 0 0 0-1.659 1.666L5 36c0 .917.742 1.667 1.667 1.667h11.666c.917 0 1.667-.75 1.667-1.667V24.333c0-.916-.75-1.666-1.667-1.666zm0 13.333H6.667v-9.167h11.666V36z"/></defs><use fill="#fbcd01" fill-rule="evenodd" transform="translate(-5 -21)" xlink:href="#a"/></svg>