<svg xmlns="http://www.w3.org/2000/svg" xmlns:xlink="http://www.w3.org/1999/xlink" width="22" height="26" viewBox="0 0 22 26"><defs><path id="a" d="M.531 2.63L.52 23.37a2.59 2.59 0 0 0 2.58 2.593h15.568a2.6 2.6 0 0 0 2.592-2.593V7.815L13.481.037H3.111A2.59 2.59 0 0 0 .531 2.63zm12.302-1.297l7.13 7.13h-7.13v-7.13z"/><path id="c" d="M12.667 6H10V2H6v4H3.333L8 10.667 12.667 6zm-9.334 6v1.333h9.334V12H3.333z"/><path id="e" d="M0 0h33v33H0z"/></defs><g fill="none" fill-rule="evenodd"><mask id="b" fill="#fff"><use xlink:href="#a"/></mask><use fill="#484747" xlink:href="#a"/><g mask="url(#b)"><g transform="translate(3.111 9.111)"><mask id="d" fill="#fff"><use xlink:href="#c"/></mask><g mask="url(#d)"><use fill="#FFF" transform="translate(-8.667 -8.667)" xlink:href="#e"/></g></g></g></g></svg>