<svg xmlns="http://www.w3.org/2000/svg" xmlns:xlink="http://www.w3.org/1999/xlink" width="14" height="18" viewBox="0 0 14 18"><defs><path id="a" d="M.342 2.333L.333 15.667c0 .916.742 1.666 1.659 1.666H12c.917 0 1.667-.75 1.667-1.666v-10l-5-5H2c-.917 0-1.658.75-1.658 1.666zM8.25 1.5l4.583 4.583H8.25V1.5z"/><path id="c" d="M7.917 3.75H6.25v-2.5h-2.5v2.5H2.083L5 6.667 7.917 3.75zM2.083 7.5v.833h5.834V7.5H2.083z"/><path id="e" d="M0 0h21v21H0z"/></defs><g fill="none" fill-rule="evenodd"><mask id="b" fill="#fff"><use xlink:href="#a"/></mask><use fill="#484747" xlink:href="#a"/><g mask="url(#b)"><g transform="translate(2 6.5)"><mask id="d" fill="#fff"><use xlink:href="#c"/></mask><g mask="url(#d)"><use fill="#FFF" transform="translate(-5.417 -5.417)" xlink:href="#e"/></g></g></g></g></svg>