<svg xmlns="http://www.w3.org/2000/svg" width="140" height="39" viewBox="0 0 140 39"><g fill="#1A1919" fill-rule="evenodd"><path d="M67.338 14.51V5.063a.947.947 0 0 0-.951-.936h-3.72a.946.946 0 0 0-.948.939l.015 9.415v.013a.352.352 0 0 1-.354.351h-.827a.352.352 0 0 1-.347-.35V3.232a.354.354 0 0 1 .354-.346h7.952c.196 0 .356.16.354.355v11.253a.352.352 0 0 1-.354.351h-.822a.352.352 0 0 1-.352-.335m13.829-7.207h-1.633a.355.355 0 0 1-.359-.358v-.402c0-.196.156-.357.35-.357h6.72c.195 0 .353.16.353.357v.4a.355.355 0 0 1-.348.36h-1.704a.952.952 0 0 0-.942.92v6.268a.355.355 0 0 1-.353.354h-.713a.356.356 0 0 1-.352-.357V8.217a.953.953 0 0 0-.838-.907c-.061-.007-.12-.007-.181-.007m22.338 2.835c0 .536-.06 1.06-.18 1.574-.12.513-.326.973-.619 1.378-.292.404-.684.73-1.177.975s-1.105.368-1.838.368c-.688 0-1.264-.117-1.727-.35a2.961 2.961 0 0 1-1.109-.934 3.812 3.812 0 0 1-.592-1.351 7.119 7.119 0 0 1-.18-1.626c0-.559.068-1.101.206-1.626.137-.525.355-.992.653-1.403a3.298 3.298 0 0 1 1.168-.993c.481-.251 1.065-.377 1.752-.377.7 0 1.284.126 1.753.377.47.251.845.58 1.126.984.28.405.478.87.592 1.395a7.51 7.51 0 0 1 .172 1.609m-1.46.034c0-.376-.026-.759-.078-1.147a3.405 3.405 0 0 0-.318-1.07 2.11 2.11 0 0 0-.67-.796c-.286-.204-.659-.307-1.117-.307-.47 0-.853.1-1.15.3-.298.2-.533.455-.705.77a3.41 3.41 0 0 0-.361 1.07 6.968 6.968 0 0 0-.103 1.18c0 .41.028.81.086 1.198.057.388.169.727.335 1.018.166.291.401.525.704.702.304.177.702.265 1.194.265.458 0 .828-.094 1.109-.282.28-.189.501-.437.661-.745.16-.308.27-.65.327-1.026a7.44 7.44 0 0 0 .086-1.13m9.075 4.032v-6.04c-.003-.49-.406-.89-.914-.918h-1.179v.001c-.507.005-.923.38-.96.854l-.005.102c-.06.958-.117 1.821-.171 2.59-.054.77-.174 1.436-.36 2.001-.186.564-.474 1.026-.864 1.385-.325.3-.766.518-1.321.655a.378.378 0 0 1-.095.011.362.362 0 0 1-.339-.221l-.158-.492a.345.345 0 0 1 .206-.401c.348-.148.627-.321.834-.518.265-.251.456-.593.577-1.026.119-.433.197-.978.233-1.633.036-.656.078-1.468.126-2.437l.075-1.602a.354.354 0 0 1 .362-.33h5.047c.199 0 .36.151.363.34v7.66a.353.353 0 0 1-.348.344h-.762a.354.354 0 0 1-.347-.325m15.226-2.354c.117-.374.25-.794.4-1.259.152-.465.305-.943.462-1.437.157-.493.316-.993.479-1.497a94.089 94.089 0 0 1 .42-1.267.35.35 0 0 1 .302-.204h.725a.346.346 0 0 1 .334.446l-.667 1.986a717.753 717.753 0 0 1-1.697 4.976c-.285.823-.56 1.624-.827 2.407-.209.658-.505 1.18-.888 1.565-.383.386-.905.578-1.566.578a23.393 23.393 0 0 0-.619-.042 5.07 5.07 0 0 1-.875-.157v-.001a.344.344 0 0 1-.258-.41h-.001l.078-.333a.35.35 0 0 1 .408-.246c.167.032.314.058.44.075.203.029.403.043.6.043.337 0 .615-.08.836-.238.22-.16.406-.465.557-.92l.344-1.045h-.004a.345.345 0 0 0-.314-.434h-.021a.268.268 0 0 1-.257-.188L122.27 6.61a.347.347 0 0 1 .34-.424h.637c.16 0 .296.105.337.25l1.665 5.449c.076.239.144.465.203.678a.35.35 0 0 0 .335.24.351.351 0 0 0 .336-.245l.222-.708zm12.124 2.65V9.776a.296.296 0 0 0-.289-.254.293.293 0 0 0-.248.14l-.305.659a135.4 135.4 0 0 1-.867 1.792 98.066 98.066 0 0 0-.814 1.692.343.343 0 0 1-.305.188h-.574a.345.345 0 0 1-.3-.19h-.001l-.146-.289-.454-.904a62.694 62.694 0 0 0-.585-1.136 39.21 39.21 0 0 1-.593-1.172 40.683 40.683 0 0 1-.347-.675.325.325 0 0 0-.271-.147.333.333 0 0 0-.327.3v4.727a.351.351 0 0 1-.345.338h-.632a.352.352 0 0 1-.345-.357V6.537a.354.354 0 0 1 .345-.351h.763c.023 0 .047 0 .07.002.228.02.423.157.53.351l1.9 3.746c.208.417.394.8.559 1.148a.528.528 0 1 0 .914.039c.083-.177.174-.371.271-.584.121-.26.25-.532.388-.816l1.665-3.456.025-.053.02-.037a.676.676 0 0 1 .549-.34h.73c.19.001.343.16.344.356v7.934h-.001v.012a.352.352 0 0 1-.346.357h-.635a.352.352 0 0 1-.341-.345M90.41 25.155c-.29 0-.563-.057-.82-.17a2.904 2.904 0 0 1-.72-.457 5.01 5.01 0 0 1-.628-.645 9.146 9.146 0 0 1-.348-.451.377.377 0 0 1 .084-.498v-.001l.237-.184.001.001a.319.319 0 0 1 .2-.07c.098 0 .186.045.248.117.25.336.513.61.792.827.346.268.68.403 1.004.403.1 0 .226-.009.377-.027.15-.018.324-.072.52-.161.194-.09.415-.227.66-.412.19-.143.4-.327.631-.552a.323.323 0 0 1 .415-.003l.046.046a.375.375 0 0 1 .016.463v.001c-.431.61-.865 1.05-1.3 1.316-.497.304-.969.457-1.415.457m13.119 8.145h.046c.19 0 .343.155.343.346v2.709a.346.346 0 0 1-.345.346h-.422a.346.346 0 0 1-.345-.346v-1.15a.927.927 0 0 0-.891-.84h-4.651a.927.927 0 0 0-.894.894v1.096a.345.345 0 0 1-.345.346h-.423a.345.345 0 0 1-.344-.346v-2.709c0-.19.15-.342.336-.347h.112c.378 0 .352.053.614-.24.184-.206.335-.435.452-.688a5.1 5.1 0 0 0 .377-1.237c.085-.47.145-1.002.18-1.598.034-.596.074-1.266.119-2.01l.067-1.215a.346.346 0 0 1 .345-.332h4.89c.188 0 .34.15.345.337l-.015 6.511c.01.25.203.45.449.472m-5.38-.958a.737.737 0 0 0 .702.956v.002h1.965a.927.927 0 0 0 .877-.913v-4.427a.927.927 0 0 0-.894-.914h-1.307a.777.777 0 0 0-.775.741l-.002.032a88.528 88.528 0 0 1-.112 1.958c-.04.573-.1 1.08-.179 1.521a6.214 6.214 0 0 1-.275 1.044m21.661 1.941v-2.777a.955.955 0 0 0-.91-.93h-2.336a.954.954 0 0 0-.91.918v2.801a.357.357 0 0 1-.355.345h-.717a.356.356 0 0 1-.355-.358v-7.946c0-.197.158-.355.353-.356h.736c.193 0 .351.157.354.351h.001v2.323a.954.954 0 0 0 .88.769h2.362a.955.955 0 0 0 .897-.929v-2.15h.001v-.006c0-.198.159-.358.354-.358h.718c.195 0 .354.161.354.358v7.944a.356.356 0 0 1-.354.358h-.717a.357.357 0 0 1-.356-.357m3.077-.01v-7.936a.35.35 0 0 1 .338-.357h5.095c.188 0 .34.16.34.357v.407a.348.348 0 0 1-.34.353h-.004v.001h-3.153c-.485.001-.882.4-.909.903v6.281a.35.35 0 0 1-.333.358h-.696a.35.35 0 0 1-.338-.358v-.01zM74.829 6.802c-.422 0-.777.075-1.066.223a2.032 2.032 0 0 0-.713.6 2.53 2.53 0 0 0-.356.681l-.002.004a.904.904 0 0 0-.045.281c0 .517.441.935.985.935h.009v.003h2.279c.527-.019.947-.43.947-.935a.859.859 0 0 0-.021-.194 2.442 2.442 0 0 0-.347-.844A1.628 1.628 0 0 0 75.85 7c-.271-.13-.611-.197-1.02-.197zm-1.322 3.636c-.538.006-.971.422-.971.935 0 .067.007.133.021.196.072.348.203.654.394.918.192.269.451.483.776.643.325.16.734.24 1.228.24.518 0 .99-.051 1.417-.154.328-.08.678-.184 1.051-.317a.384.384 0 0 1 .137-.024c.162 0 .3.099.35.236l.117.289v.001a.341.341 0 0 1-.187.399l-.005.002c-.431.193-.865.34-1.3.443a7.355 7.355 0 0 1-1.689.188c-.782 0-1.426-.114-1.932-.343-.506-.229-.906-.534-1.2-.917a3.368 3.368 0 0 1-.615-1.355 7.71 7.71 0 0 1-.171-1.655c0-.252.018-.534.054-.849a4.933 4.933 0 0 1 .632-1.904 3.01 3.01 0 0 1 .705-.83 3.48 3.48 0 0 1 1.038-.584c.403-.148.882-.223 1.435-.223.59 0 1.087.075 1.49.223.403.148.738.343 1.003.583.265.24.47.509.613.806.145.297.25.595.317.892.066.297.105.577.117.84.012.263.019.48.019.651v.328a.362.362 0 0 1-.352.342h-4.492zm44.208-3.636c-.421 0-.777.075-1.065.223-.29.149-.527.349-.714.6a2.55 2.55 0 0 0-.355.681l-.002.004a.904.904 0 0 0-.045.281c0 .517.44.935.984.935h.01v.003h2.279c.526-.019.947-.43.947-.935a.859.859 0 0 0-.022-.194h.001a2.442 2.442 0 0 0-.347-.844 1.628 1.628 0 0 0-.65-.557c-.272-.13-.611-.197-1.02-.197zm-1.321 3.636c-.538.006-.972.422-.972.935 0 .067.007.133.022.196a2.4 2.4 0 0 0 .393.918c.193.269.452.483.777.643.324.16.734.24 1.227.24.518 0 .99-.051 1.418-.154.328-.08.678-.184 1.05-.317a.384.384 0 0 1 .138-.024c.161 0 .3.099.35.236l.116.289.001.001a.341.341 0 0 1-.187.399l-.005.002c-.432.193-.865.34-1.3.443a7.355 7.355 0 0 1-1.69.188c-.781 0-1.426-.114-1.931-.343-.506-.229-.906-.534-1.2-.917a3.368 3.368 0 0 1-.615-1.355 7.71 7.71 0 0 1-.172-1.655c0-.252.018-.534.055-.849a4.933 4.933 0 0 1 .632-1.904c.18-.314.415-.591.704-.83a3.49 3.49 0 0 1 1.038-.584c.403-.148.882-.223 1.436-.223.59 0 1.086.075 1.49.223.403.148.737.343 1.003.583.264.24.469.509.613.806.145.297.25.595.316.892.067.297.105.577.118.84.012.263.018.48.018.651v.328a.362.362 0 0 1-.352.342h-4.491zm-34.143 16.57c-.421 0-.777.075-1.065.223-.29.149-.527.349-.713.6a2.53 2.53 0 0 0-.356.682l-.002.003a.904.904 0 0 0-.045.282c0 .516.44.935.985.935h.008l.001.002h2.279c.526-.018.947-.43.947-.934a.859.859 0 0 0-.022-.195h.001a2.442 2.442 0 0 0-.347-.843 1.628 1.628 0 0 0-.65-.557c-.272-.132-.611-.198-1.02-.198zm-1.321 3.636c-.538.006-.972.422-.972.935 0 .067.007.133.022.196a2.4 2.4 0 0 0 .393.918c.193.269.452.483.777.643.324.16.734.24 1.227.24.518 0 .99-.05 1.418-.154.328-.079.678-.184 1.051-.317a.384.384 0 0 1 .137-.024c.162 0 .3.1.35.237l.117.288v.001a.341.341 0 0 1-.187.4l-.005.001c-.431.193-.865.34-1.3.443a7.35 7.35 0 0 1-1.689.188c-.782 0-1.426-.114-1.932-.342-.506-.23-.906-.535-1.2-.918a3.368 3.368 0 0 1-.615-1.354 7.71 7.71 0 0 1-.171-1.655c0-.252.017-.535.054-.85a4.933 4.933 0 0 1 .632-1.903c.18-.315.415-.592.704-.832a3.49 3.49 0 0 1 1.038-.583c.403-.148.882-.223 1.436-.223.59 0 1.086.075 1.49.223.403.148.737.343 1.003.583.264.24.469.509.613.806.145.298.25.595.316.892.067.297.105.577.118.84.012.263.018.48.018.652v.327a.362.362 0 0 1-.352.342H80.93zm-17.733 3.657v-9.356a1.143 1.143 0 0 0-1.076-1.095h-2.39a.357.357 0 0 1-.35-.359v-.452c0-.197.159-.358.355-.359h8.346v.001h.016c.196 0 .356.16.356.358v.452a.357.357 0 0 1-.355.359h-2.367a1.143 1.143 0 0 0-1.077 1.128h-.003l-.014 9.297h-.001v.006a.356.356 0 0 1-.355.358h-.736a.356.356 0 0 1-.349-.338M88.76 6.917c.297-.194.628-.356.987-.484a4.13 4.13 0 0 1 1.396-.247c.621 0 1.148.11 1.572.332a2.66 2.66 0 0 1 1.016.902c.254.381.433.824.54 1.33a7.63 7.63 0 0 1 .162 1.592c0 .614-.063 1.187-.188 1.72-.125.535-.329 1-.604 1.398a2.93 2.93 0 0 1-1.088.945c-.448.232-.998.35-1.646.35a7.847 7.847 0 0 1-1.214-.108 4.684 4.684 0 0 1-.474-.113.66.66 0 0 0-.146-.016c-.336 0-.61.25-.629.565v2.719a.352.352 0 0 1-.361.342h-.712c-.2 0-.36-.154-.36-.343V6.63c0-.189.162-.341.36-.341v-.001h.684c.2 0 .361.154.361.343v.002l.003.102c.01.115.113.205.237.205a.247.247 0 0 0 .103-.023zm-.297 5.633v.015c0 .396.263.734.633.863v.003c.1.036.203.07.31.105a4.393 4.393 0 0 0 1.253.196c.31 0 .606-.054.881-.162.278-.108.52-.295.73-.565.209-.266.376-.618.495-1.059.12-.437.18-.982.18-1.63 0-.581-.054-1.062-.161-1.445-.108-.38-.26-.684-.452-.911a1.573 1.573 0 0 0-.693-.488 2.626 2.626 0 0 0-1.494-.068c-.221.05-.44.119-.657.204-.19.076-.367.155-.53.241l.002.002a.915.915 0 0 0-.497.804v3.895zM71.44 26.711a4.7 4.7 0 0 1 .988-.484 4.13 4.13 0 0 1 1.396-.248c.62 0 1.147.111 1.571.332a2.66 2.66 0 0 1 1.016.903c.254.381.433.824.54 1.329a7.63 7.63 0 0 1 .162 1.593 7.47 7.47 0 0 1-.188 1.72c-.125.534-.328 1-.604 1.398a2.93 2.93 0 0 1-1.087.944c-.449.233-.998.35-1.646.35a7.847 7.847 0 0 1-1.214-.108 4.684 4.684 0 0 1-.474-.112.66.66 0 0 0-.146-.016.62.62 0 0 0-.63.565v2.718c0 .19-.162.343-.36.343h-.713a.352.352 0 0 1-.36-.343V26.424c0-.189.162-.342.36-.342h.685c.2 0 .36.154.36.343v.002h.001l.003.102c.01.114.112.205.236.205a.247.247 0 0 0 .104-.023zm-.297 5.633v.015c0 .396.264.734.633.863v.003c.1.035.203.07.311.105a4.393 4.393 0 0 0 1.252.196c.311 0 .607-.054.882-.162.278-.108.52-.295.73-.565.208-.267.376-.62.495-1.059.12-.437.18-.982.18-1.63 0-.582-.054-1.062-.162-1.445-.107-.38-.26-.684-.451-.911a1.573 1.573 0 0 0-.694-.489 2.626 2.626 0 0 0-1.494-.068c-.22.052-.44.12-.657.205-.19.076-.367.155-.53.241l.002.002a.915.915 0 0 0-.497.804v3.894zm40.011 1.932v-5.129a.356.356 0 0 0-.354-.358.351.351 0 0 0-.3.17l-.002-.001c-.176.286-.373.6-.591.943-.293.462-.607.958-.94 1.491-.334.532-.647 1.029-.94 1.49a588.806 588.806 0 0 0-.993 1.566l-.034.049a.353.353 0 0 1-.283.142h-.797a.356.356 0 0 1-.353-.357v-7.945c0-.197.158-.357.353-.358h.716c.194 0 .353.16.354.356v5.1a.352.352 0 1 0 .65.17c.074-.12.15-.238.225-.355.584-.922 1.06-1.677 1.435-2.262.373-.586.68-1.068.917-1.447l.58-.914c.107-.171.21-.334.31-.49a.353.353 0 0 1 .293-.158h.807c.188.001.343.15.353.34v1.622c0 .762.002 1.553.009 2.368.005.817.008 1.606.008 2.37v1.603a.355.355 0 0 1-.354.357h-.717a.356.356 0 0 1-.352-.357v-.006zm-18.557 0v-5.129a.356.356 0 0 0-.354-.358.351.351 0 0 0-.3.17l-.001-.001c-.177.286-.374.6-.592.943-.293.462-.606.958-.94 1.491-.334.532-.647 1.029-.94 1.49a588.76 588.76 0 0 0-.992 1.566l-.034.049a.353.353 0 0 1-.284.142h-.797a.356.356 0 0 1-.353-.357v-7.945a.358.358 0 0 1 .353-.358h.716c.195 0 .353.16.354.356v5.1a.352.352 0 1 0 .65.17c.074-.12.15-.238.226-.355.583-.922 1.06-1.677 1.435-2.262.372-.586.679-1.068.917-1.447l.58-.914c.106-.171.21-.334.308-.49a.353.353 0 0 1 .294-.158h.807c.189.001.343.15.353.34v1.622c0 .762.003 1.553.009 2.368.005.817.009 1.606.009 2.37v1.603a.355.355 0 0 1-.355.357h-.716a.356.356 0 0 1-.353-.357v-.006zM2.5 17A2.503 2.503 0 0 0 0 19.5C0 20.878 1.121 22 2.5 22S5 20.878 5 19.5C5 18.12 3.879 17 2.5 17m0-17A2.503 2.503 0 0 0 0 2.5C0 3.88 1.121 5 2.5 5S5 3.88 5 2.5C5 1.123 3.879 0 2.5 0m0 34A2.503 2.503 0 0 0 0 36.5C0 37.878 1.121 39 2.5 39S5 37.878 5 36.5C5 35.12 3.879 34 2.5 34m17-17a2.503 2.503 0 0 0-2.5 2.5c0 1.378 1.121 2.5 2.5 2.5s2.5-1.122 2.5-2.5c0-1.379-1.121-2.5-2.5-2.5m0-17A2.503 2.503 0 0 0 17 2.5C17 3.88 18.121 5 19.5 5S22 3.88 22 2.5C22 1.123 20.879 0 19.5 0m0 34a2.503 2.503 0 0 0-2.5 2.5c0 1.378 1.121 2.5 2.5 2.5s2.5-1.122 2.5-2.5c0-1.379-1.121-2.5-2.5-2.5m17-17a2.503 2.503 0 0 0-2.5 2.5c0 1.378 1.121 2.5 2.5 2.5s2.5-1.122 2.5-2.5c0-1.379-1.121-2.5-2.5-2.5m0-12C37.879 5 39 3.879 39 2.5S37.879 0 36.5 0A2.503 2.503 0 0 0 34 2.5C34 3.879 35.121 5 36.5 5m0 29a2.503 2.503 0 0 0-2.5 2.5c0 1.378 1.121 2.5 2.5 2.5s2.5-1.122 2.5-2.5c0-1.379-1.121-2.5-2.5-2.5"/></g></svg>