<svg xmlns="http://www.w3.org/2000/svg" width="40" height="40" viewBox="0 0 40 40"><defs><linearGradient id="a" x1="58.113%" x2="67.841%" y1="43.69%" y2="80.24%"><stop offset="0%" stop-color="#FFF"/><stop offset="100%" stop-color="#FFF"/></linearGradient></defs><g fill="none"><circle cx="20" cy="20" r="20" fill="#68C2F0"/><path fill="#F0F0F0" d="M16.08 28.865c-.627 0-.52-.24-.737-.846l-1.848-6.16 14.222-8.55"/><path fill="#DFDFDF" d="M16.08 28.865c.486 0 .7-.224.97-.49l2.586-2.548-3.225-1.97"/><path fill="url(#a)" d="M16.41 23.857l7.816 5.85c.892.499 1.536.24 1.758-.839l3.181-15.19c.326-1.322-.497-1.922-1.35-1.53L9.132 19.446c-1.275.518-1.268 1.24-.232 1.56l4.794 1.516 11.098-7.094c.524-.322 1.005-.149.61.206"/></g></svg>